<svg width="560" height="140" viewBox="0 0 560 140" fill="none" xmlns="http://www.w3.org/2000/svg">
  <defs>
    <linearGradient id="g1" x1="0" y1="0" x2="1" y2="1">
      <stop offset="0%" stop-color="#43C881"/>
      <stop offset="100%" stop-color="#25A568"/>
    </linearGradient>
  </defs>
  <rect x="0" y="0" width="560" height="140" rx="20" fill="transparent"/>
  <rect x="10" y="10" width="120" height="120" rx="22" fill="url(#g1)"/>
  <path d="M45 37H72C88 37 96 44 96 58C96 67 92 74 83 77L100 103H84L69 81H57V103H45V37ZM57 70H71C79 70 84 66 84 59C84 52 79 48 71 48H57V70Z" fill="#0E2B20"/>
  <path d="M146 40H337V54H146V40ZM146 62H310V76H146V62Z" fill="#FFFFFF" fill-opacity="0.26"/>
  <text x="146" y="78" fill="#F5FFF8" font-family="'Space Grotesk', Arial, sans-serif" font-size="54" font-weight="700" letter-spacing="1.5">BICO FINO</text>
  <text x="146" y="112" fill="#CDEEDD" font-family="Arial, sans-serif" font-size="20" font-weight="700" letter-spacing="2.8">MOSQUICIDA ORIGINAL</text>
  <g transform="translate(438 49)">
    <ellipse cx="-4.2" cy="-2.3" rx="4.6" ry="2.4" fill="#E2F8EC" fill-opacity="0.45"/>
    <ellipse cx="4.2" cy="-2.3" rx="4.6" ry="2.4" fill="#E2F8EC" fill-opacity="0.45"/>
    <ellipse cx="0" cy="1.2" rx="2.3" ry="3.6" fill="#CDEEDD"/>
    <circle cx="0" cy="-3.9" r="1.9" fill="#CDEEDD"/>
    <path d="M-1.2 -5.3L-3.8 -7.4M1.2 -5.3L3.8 -7.4" stroke="#CDEEDD" stroke-width="1.2" stroke-linecap="round"/>
  </g>
</svg>
